<svg width="185" height="187" viewBox="0 0 185 187" fill="none" xmlns="http://www.w3.org/2000/svg">
<path d="M183.976 0.450091H0.315064V186.764H183.976V0.450091Z" fill="white"/>
<path d="M183.975 186.764C183.975 186.764 183.975 186.678 183.975 186.535C183.975 186.392 183.975 186.164 183.975 185.878C183.975 185.298 183.975 184.447 183.975 183.303C183.975 181.029 183.975 177.675 183.939 173.291C183.939 164.537 183.889 151.707 183.854 135.387C183.818 102.797 183.761 56.2546 183.689 0.450555L184.011 0.772375L0.371881 0.822436L0.743768 0.450555C0.743768 68.727 0.743768 132.684 0.693707 186.757L0.371881 186.442L133.435 186.6L170.773 186.686L180.628 186.721H183.167H183.811H184.032H183.203H180.7L170.902 186.757L133.642 186.843L0.371881 187H0.0500611V186.678C0.0500611 132.605 0.0500613 68.6769 0 0.371887V0H0.393335L184.032 0.0500611H184.361V0.371887C184.29 56.2617 184.233 102.869 184.197 135.537C184.154 151.829 184.125 164.63 184.111 173.369C184.111 177.718 184.111 181.057 184.068 183.317C184.068 184.433 184.068 185.284 184.068 185.856V186.493C184.048 186.586 184.017 186.678 183.975 186.764Z" fill="#263238"/>
<path d="M14.7317 30.8381V35.7798H13.8091V31.6104H12.765V30.8381H14.7317Z" fill="black"/>
<path d="M15.6827 35.2431C15.6827 35.167 15.6977 35.0917 15.7268 35.0214C15.7559 34.9512 15.7986 34.8873 15.8524 34.8335C15.9062 34.7797 15.97 34.737 16.0403 34.7079C16.1106 34.6788 16.1859 34.6638 16.262 34.6638C16.3381 34.6638 16.4134 34.6788 16.4837 34.7079C16.554 34.737 16.6178 34.7797 16.6716 34.8335C16.7254 34.8873 16.7681 34.9512 16.7972 35.0214C16.8263 35.0917 16.8413 35.167 16.8413 35.2431C16.8413 35.3192 16.8263 35.3945 16.7972 35.4648C16.7681 35.5351 16.7254 35.5989 16.6716 35.6527C16.6178 35.7065 16.554 35.7492 16.4837 35.7783C16.4134 35.8074 16.3381 35.8224 16.262 35.8224C16.1859 35.8224 16.1106 35.8074 16.0403 35.7783C15.97 35.7492 15.9062 35.7065 15.8524 35.6527C15.7986 35.5989 15.7559 35.5351 15.7268 35.4648C15.6977 35.3945 15.6827 35.3192 15.6827 35.2431Z" fill="black"/>
<path d="M76.3147 10.8631C76.2904 10.3324 76.4256 9.80658 76.7028 9.35339C76.9799 8.90019 77.3864 8.54036 77.8699 8.32023C78.3534 8.1001 78.8917 8.02976 79.4156 8.11827C79.9394 8.20678 80.4247 8.45008 80.809 8.81683C81.1933 9.18359 81.459 9.65701 81.5719 10.1761C81.6848 10.6952 81.6397 11.2362 81.4425 11.7295C81.2452 12.2227 80.9047 12.6456 80.465 12.9437C80.0252 13.2417 79.5063 13.4013 78.9751 13.4019C78.6314 13.4194 78.2877 13.3666 77.965 13.2468C77.6423 13.127 77.3475 12.9426 77.0985 12.705C76.8495 12.4674 76.6516 12.1815 76.5168 11.8648C76.3821 11.5481 76.3133 11.2072 76.3147 10.8631ZM80.7129 10.8631C80.7129 10.5194 80.611 10.1834 80.42 9.89757C80.2291 9.61178 79.9577 9.38904 79.6401 9.25751C79.3226 9.12598 78.9732 9.09156 78.6361 9.15861C78.2989 9.22567 77.9893 9.39118 77.7462 9.63422C77.5032 9.87727 77.3377 10.1869 77.2706 10.524C77.2036 10.8611 77.238 11.2106 77.3695 11.5281C77.5011 11.8457 77.7238 12.1171 78.0096 12.308C78.2954 12.499 78.6314 12.6009 78.9751 12.6009C79.2046 12.6068 79.4329 12.5659 79.646 12.4806C79.8592 12.3952 80.0527 12.2673 80.2147 12.1047C80.3767 11.942 80.5038 11.748 80.5882 11.5345C80.6727 11.321 80.7127 11.0925 80.7058 10.8631H80.7129Z" fill="black"/>
<path d="M87.0004 8.39615V13.3379H86.2494L83.5247 9.99096V13.3379H82.6093V8.39615H83.3673L86.0921 11.7288V8.39615H87.0004Z" fill="black"/>
<path d="M88.3293 8.39615H89.2447V12.5584H91.8336V13.3379H88.3293V8.39615Z" fill="black"/>
<path d="M92.5563 8.39615H93.4717V13.3379H92.5563V8.39615Z" fill="black"/>
<path d="M99.1985 8.39615V13.3379H98.4404L95.7228 9.99096V13.3379H94.8146V8.39615H95.5726L98.2902 11.7288V8.39615H99.1985Z" fill="black"/>
<path d="M104.235 12.5655V13.3379H100.523V8.39615H104.099V9.16138H101.445V10.4487H103.834V11.1996H101.445V12.5655H104.235Z" fill="black"/>
<path d="M108.204 9.16853H106.566V8.39615H110.742V9.16853H109.105V13.3379H108.182L108.204 9.16853Z" fill="black"/>
<path d="M115.163 12.5655V13.3379H111.458V8.39615H115.034V9.16138H112.345V10.4487H114.726V11.1996H112.345V12.5655H115.163Z" fill="black"/>
<path d="M115.75 12.8155L116.071 12.1003C116.543 12.4508 117.114 12.6413 117.702 12.6438C118.474 12.6438 118.796 12.3649 118.796 12.0002C118.796 10.9346 115.857 11.6355 115.857 9.79751C115.857 8.99653 116.493 8.32427 117.852 8.32427C118.43 8.31361 119 8.4647 119.497 8.76052L119.204 9.47568C118.794 9.2266 118.325 9.09087 117.845 9.08235C117.08 9.08235 116.772 9.38271 116.772 9.75459C116.772 10.8059 119.697 10.1193 119.697 11.9358C119.697 12.7297 119.054 13.3662 117.702 13.3662C117.009 13.3979 116.324 13.2047 115.75 12.8155Z" fill="black"/>
<path d="M121.556 9.16853H119.918V8.39615H124.109V9.16853H122.471V13.3379H121.556V9.16853Z" fill="black"/>
<path d="M37.6185 52.5502H35.1441L34.6578 53.6944H33.7138L35.9379 48.7527H36.839L39.0703 53.6944H38.112L37.6185 52.5502ZM37.311 51.835L36.3813 49.6895L35.4588 51.835H37.311Z" fill="black"/>
<path d="M12.7081 13.3302C13.8179 13.3302 14.7177 12.4305 14.7177 11.3206C14.7177 10.2107 13.8179 9.31101 12.7081 9.31101C11.5982 9.31101 10.6985 10.2107 10.6985 11.3206C10.6985 12.4305 11.5982 13.3302 12.7081 13.3302Z" fill="black"/>
<path d="M18.7941 13.3302C19.9039 13.3302 20.8037 12.4305 20.8037 11.3206C20.8037 10.2107 19.9039 9.31101 18.7941 9.31101C17.6842 9.31101 16.7845 10.2107 16.7845 11.3206C16.7845 12.4305 17.6842 13.3302 18.7941 13.3302Z" fill="black"/>
<path d="M24.8801 13.3302C25.99 13.3302 26.8897 12.4305 26.8897 11.3206C26.8897 10.2107 25.99 9.31101 24.8801 9.31101C23.7702 9.31101 22.8705 10.2107 22.8705 11.3206C22.8705 12.4305 23.7702 13.3302 24.8801 13.3302Z" fill="black"/>
<path d="M183.975 21.2619C183.975 21.3621 143.068 21.4479 92.6136 21.4479C42.159 21.4479 1.2446 21.3621 1.2446 21.2619C1.2446 21.1618 42.1447 21.076 92.6136 21.076C143.082 21.076 183.975 21.1618 183.975 21.2619Z" fill="black"/>
<path d="M163.894 35.0787C163.894 35.1789 132.047 35.2647 92.7708 35.2647C53.4941 35.2647 21.6337 35.1789 21.6337 35.0787C21.6337 34.9786 53.4798 34.8928 92.7708 34.8928C132.062 34.8928 163.894 34.9715 163.894 35.0787Z" fill="black"/>
<path d="M76.5298 39.9133C76.5298 40.0134 64.3721 40.0992 49.3537 40.0992C34.3353 40.0992 22.1347 40.0134 22.1347 39.9133C22.1347 39.8132 34.2924 39.7274 49.3537 39.7274C64.415 39.7274 76.5298 39.806 76.5298 39.9133Z" fill="black"/>
<path d="M29.9296 54.4742H23.4145V47.9591H29.9296V54.4742ZM24.1297 53.7591H29.2145V48.6743H24.1297V53.7591Z" fill="black"/>
<path d="M38.7682 64.7219C38.7682 65.5657 38.1031 66.0592 36.8301 66.0592H34.3772V61.1174H36.6871C37.8743 61.1174 38.5108 61.6181 38.5108 62.4047C38.5182 62.6275 38.4624 62.8479 38.3497 63.0403C38.2371 63.2327 38.0722 63.3892 37.8743 63.4918C38.1403 63.5658 38.3734 63.7276 38.5357 63.951C38.698 64.1743 38.78 64.446 38.7682 64.7219ZM35.2926 61.8612V63.22H36.5942C37.2235 63.22 37.5882 62.9983 37.5882 62.5478C37.5882 62.0972 37.2235 61.8326 36.5942 61.8326L35.2926 61.8612ZM37.8385 64.6503C37.8385 64.1569 37.4667 63.9352 36.7729 63.9352H35.2926V65.3655H36.7729C37.4667 65.3655 37.8385 65.1223 37.8385 64.6503Z" fill="black"/>
<path d="M29.9296 66.8456H23.4145V60.3591H29.9296V66.8456ZM24.1297 66.1305H29.2145V61.0743H24.1297V66.1305Z" fill="black"/>
<path d="M34.021 75.9574C34.0466 75.4349 34.2249 74.9315 34.5337 74.5093C34.8425 74.0871 35.2683 73.7648 35.7584 73.5821C36.2486 73.3994 36.7815 73.3645 37.2913 73.4816C37.8011 73.5987 38.2653 73.8627 38.6266 74.241L38.033 74.7988C37.8666 74.6134 37.6625 74.4658 37.4343 74.3658C37.2061 74.2659 36.9591 74.216 36.71 74.2195C36.2491 74.2195 35.8071 74.4026 35.4812 74.7285C35.1553 75.0544 34.9722 75.4964 34.9722 75.9574C34.9722 76.4183 35.1553 76.8603 35.4812 77.1862C35.8071 77.5121 36.2491 77.6952 36.71 77.6952C36.9598 77.6987 37.2074 77.6481 37.4358 77.5469C37.6641 77.4457 37.8679 77.2962 38.033 77.1088L38.6266 77.6737C38.2653 78.052 37.8011 78.316 37.2913 78.4331C36.7815 78.5502 36.2486 78.5153 35.7584 78.3326C35.2683 78.1499 34.8425 77.8276 34.5337 77.4054C34.2249 76.9832 34.0466 76.4798 34.021 75.9574Z" fill="black"/>
<path d="M29.9296 79.2116H23.4145V72.6965H29.9296V79.2116ZM24.1297 78.4965H29.2145V73.4117H24.1297V78.4965Z" fill="black"/>
<path d="M34.3772 85.8548H36.5226C38.1246 85.8548 39.2188 86.8417 39.2188 88.3221C39.2188 89.8025 38.1246 90.7966 36.5226 90.7966H34.3772V85.8548ZM36.5226 90.0171C36.754 90.0321 36.986 89.9995 37.2043 89.9213C37.4225 89.8432 37.6224 89.721 37.7916 89.5625C37.9608 89.404 38.0957 89.2124 38.1878 88.9997C38.28 88.7869 38.3276 88.5576 38.3276 88.3257C38.3276 88.0938 38.28 87.8645 38.1878 87.6517C38.0957 87.439 37.9608 87.2474 37.7916 87.0889C37.6224 86.9304 37.4225 86.8082 37.2043 86.7301C36.986 86.6519 36.754 86.6193 36.5226 86.6344H35.2926V90.0171H36.5226Z" fill="black"/>
<path d="M29.9296 91.5833H23.4145V85.0681H29.9296V91.5833ZM24.1297 90.8681H29.2145V85.7833H24.1297V90.8681Z" fill="black"/>
<path d="M92.7634 51.2194C92.7634 51.3195 82.036 51.4053 68.7626 51.4053C55.4893 51.4053 44.7547 51.3195 44.7547 51.2194C44.7547 51.1193 55.4821 51.0334 68.7626 51.0334C82.0432 51.0334 92.7634 51.1121 92.7634 51.2194Z" fill="black"/>
<path d="M158.844 63.5851C158.844 63.6924 133.299 63.7711 101.803 63.7711C70.3074 63.7711 44.7547 63.6924 44.7547 63.5851C44.7547 63.4779 70.2931 63.3992 101.803 63.3992C133.313 63.3992 158.844 63.485 158.844 63.5851Z" fill="black"/>
<path d="M60.453 88.3225C60.453 88.4227 56.9416 88.5085 52.5862 88.5085C48.2309 88.5085 44.7195 88.4227 44.7195 88.3225C44.7195 88.2224 48.2309 88.1366 52.5862 88.1366C56.9416 88.1366 60.453 88.251 60.453 88.3225Z" fill="black"/>
<path d="M101.796 75.9577C101.796 76.0579 89.0303 76.1437 73.2753 76.1437C57.5203 76.1437 44.7547 76.0579 44.7547 75.9577C44.7547 75.8576 57.5203 75.7718 73.2753 75.7718C89.0303 75.7718 101.796 75.8505 101.796 75.9577Z" fill="black"/>
<path d="M14.9114 105.929V106.702H11.264V106.087L13.2307 104.227C13.7099 103.769 13.7957 103.476 13.7957 103.204C13.7957 102.747 13.481 102.489 12.8732 102.489C12.6542 102.478 12.4357 102.519 12.2356 102.608C12.0354 102.698 11.8593 102.834 11.7217 103.004L11.0781 102.511C11.3048 102.237 11.5923 102.02 11.9176 101.878C12.2429 101.735 12.597 101.67 12.9518 101.688C14.0246 101.688 14.7183 102.232 14.7183 103.119C14.7106 103.424 14.6331 103.723 14.4917 103.993C14.3504 104.263 14.149 104.497 13.903 104.678L12.5799 105.936L14.9114 105.929Z" fill="black"/>
<path d="M15.4479 106.166C15.4479 106.012 15.5089 105.865 15.6176 105.756C15.7262 105.647 15.8735 105.586 16.0272 105.586C16.1808 105.586 16.3282 105.647 16.4368 105.756C16.5454 105.865 16.6065 106.012 16.6065 106.166C16.6065 106.319 16.5454 106.467 16.4368 106.575C16.3282 106.684 16.1808 106.745 16.0272 106.745C15.8735 106.745 15.7262 106.684 15.6176 106.575C15.5089 106.467 15.4479 106.319 15.4479 106.166Z" fill="black"/>
<path d="M35.8867 123.473H33.4194L32.933 124.617H31.9819L34.206 119.675H35.1143L37.3456 124.617H36.3658L35.8867 123.473ZM35.5863 122.758L34.6566 120.612L33.7269 122.758H35.5863Z" fill="black"/>
<path d="M162.163 106.001C162.163 106.101 130.317 106.187 91.0403 106.187C51.7636 106.187 19.9175 106.13 19.9175 106.001C19.9175 105.873 51.7565 105.815 91.0474 105.815C130.338 105.815 162.163 105.901 162.163 106.001Z" fill="black"/>
<path d="M74.8056 110.836C74.8056 110.936 62.6479 111.022 47.5866 111.022C32.5253 111.022 20.3676 110.936 20.3676 110.836C20.3676 110.736 32.5253 110.65 47.5866 110.65C62.6479 110.65 74.8056 110.729 74.8056 110.836Z" fill="black"/>
<path d="M28.1704 125.439H21.6552V118.924H28.1704V125.439ZM22.3704 124.724H27.4552V119.639H22.3704V124.724Z" fill="black"/>
<path d="M37.0383 135.644C37.0383 136.488 36.3732 136.982 35.1074 136.982H32.6472V132.04H34.9358C36.1229 132.04 36.7594 132.541 36.7594 133.327C36.7652 133.55 36.7086 133.769 36.5961 133.962C36.4837 134.154 36.3198 134.31 36.1229 134.414C36.3936 134.483 36.6323 134.643 36.799 134.867C36.9657 135.091 37.0502 135.365 37.0383 135.644ZM33.5698 132.784V134.15H34.8642C35.5007 134.15 35.8583 133.921 35.8583 133.47C35.8583 133.02 35.5007 132.755 34.8642 132.755L33.5698 132.784ZM36.1158 135.573C36.1158 135.079 35.7439 134.858 35.0502 134.858H33.5698V136.288H35.0502C35.7439 136.267 36.1158 136.045 36.1158 135.551V135.573Z" fill="black"/>
<path d="M28.1704 137.768H21.6552V131.253H28.1704V137.768ZM22.3704 137.053H27.4552V131.968H22.3704V137.053Z" fill="black"/>
<path d="M32.2971 146.894C32.2937 146.551 32.3607 146.21 32.4938 145.893C32.627 145.577 32.8236 145.291 33.0715 145.053C33.3193 144.815 33.6133 144.63 33.9352 144.51C34.2571 144.39 34.6001 144.338 34.9432 144.355C35.3091 144.34 35.6738 144.406 36.0112 144.548C36.3487 144.69 36.6507 144.905 36.8956 145.178L36.3091 145.735C36.1421 145.551 35.9379 145.404 35.7098 145.304C35.4817 145.204 35.235 145.154 34.9861 145.156C34.5252 145.156 34.0831 145.339 33.7572 145.665C33.4313 145.991 33.2482 146.433 33.2482 146.894C33.2482 147.355 33.4313 147.797 33.7572 148.123C34.0831 148.449 34.5252 148.632 34.9861 148.632C35.2358 148.635 35.4832 148.584 35.7115 148.483C35.9399 148.382 36.1437 148.233 36.3091 148.045L36.8956 148.61C36.5352 148.99 36.0714 149.254 35.5617 149.372C35.0521 149.49 34.5191 149.455 34.0291 149.272C33.539 149.089 33.1136 148.766 32.8056 148.343C32.4977 147.921 32.3208 147.417 32.2971 146.894Z" fill="black"/>
<path d="M28.1704 150.134H21.6552V143.619H28.1704V150.134ZM22.3704 149.419H27.4552V144.334H22.3704V149.419Z" fill="black"/>
<path d="M32.6472 156.777H34.7927C36.3947 156.777 37.4889 157.764 37.4889 159.252C37.4889 160.739 36.3947 161.719 34.7927 161.719H32.6472V156.777ZM34.7927 160.947C35.0284 160.968 35.266 160.941 35.4903 160.865C35.7147 160.79 35.9209 160.669 36.0957 160.509C36.2705 160.35 36.4102 160.156 36.5058 159.939C36.6013 159.723 36.6507 159.488 36.6507 159.252C36.6507 159.015 36.6013 158.781 36.5058 158.565C36.4102 158.348 36.2705 158.154 36.0957 157.994C35.9209 157.835 35.7147 157.714 35.4903 157.638C35.266 157.563 35.0284 157.535 34.7927 157.557H33.5984V160.947H34.7927Z" fill="black"/>
<path d="M28.1704 162.506H21.6552V155.991H28.1704V162.506ZM22.3704 161.791H27.4552V156.706H22.3704V161.791Z" fill="black"/>
<path d="M91.0407 122.142C91.0407 122.242 80.3133 122.328 67.0327 122.328C53.7522 122.328 43.0248 122.242 43.0248 122.142C43.0248 122.042 53.7522 121.956 67.0327 121.956C80.3133 121.956 91.0407 122.042 91.0407 122.142Z" fill="black"/>
<path d="M157.114 134.508C157.114 134.615 131.576 134.694 100.073 134.694C68.5703 134.694 43.0248 134.615 43.0248 134.508C43.0248 134.4 68.5632 134.322 100.073 134.322C131.583 134.322 157.114 134.408 157.114 134.508Z" fill="black"/>
<path d="M58.729 159.245C58.729 159.352 55.2104 159.431 50.8622 159.431C46.514 159.431 42.9954 159.352 42.9954 159.245C42.9954 159.138 46.514 159.059 50.8622 159.059C55.2104 159.059 58.729 159.145 58.729 159.245Z" fill="black"/>
<path d="M100.073 146.894C100.073 146.994 87.3004 147.08 71.5525 147.08C55.8047 147.08 43.0248 146.994 43.0248 146.894C43.0248 146.794 55.7975 146.708 71.5525 146.708C87.3075 146.708 100.073 146.772 100.073 146.894Z" fill="black"/>
<path d="M146.257 176.215H116.814C115.627 176.215 114.452 175.982 113.355 175.527C112.259 175.073 111.263 174.407 110.424 173.567C109.585 172.728 108.92 171.731 108.467 170.635C108.013 169.538 107.78 168.363 107.781 167.176C107.781 164.78 108.733 162.483 110.427 160.789C112.121 159.095 114.418 158.143 116.814 158.143H146.257C148.652 158.143 150.95 159.095 152.644 160.789C154.338 162.483 155.289 164.78 155.289 167.176C155.29 168.363 155.057 169.538 154.604 170.635C154.15 171.731 153.485 172.728 152.646 173.567C151.807 174.407 150.811 175.073 149.715 175.527C148.619 175.982 147.444 176.215 146.257 176.215Z" fill="url(#paint0_linear_1_8651)"/>
<path d="M124.166 165.031V169.944H123.229L120.755 166.962V169.944H119.632V165.031H120.569L123.008 168.013V165.031H124.166Z" fill="white"/>
<path d="M129.129 169.064V169.979H125.325V165.066H129.037V165.981H126.476V167.047H128.758V167.927H126.476V169.064H129.129Z" fill="white"/>
<path d="M133.077 169.944L131.89 168.242L130.724 169.944H129.423L131.239 167.448L129.516 165.031H130.803L131.933 166.625L133.041 165.031H134.271L132.555 167.405L134.393 169.944H133.077Z" fill="white"/>
<path d="M135.775 165.96H134.201V165.031H138.492V165.96H136.919V169.944H135.775V165.96Z" fill="white"/>
<path d="M144.705 169.572C144.645 169.571 144.587 169.556 144.534 169.527C144.482 169.498 144.438 169.457 144.405 169.407C144.353 169.329 144.334 169.232 144.353 169.14C144.372 169.048 144.426 168.966 144.505 168.914L146.786 167.391C146.822 167.368 146.852 167.336 146.872 167.299C146.892 167.261 146.902 167.219 146.901 167.176C146.901 167.133 146.889 167.09 146.868 167.053C146.847 167.015 146.816 166.984 146.779 166.961L144.519 165.624C144.439 165.575 144.382 165.496 144.36 165.405C144.337 165.314 144.351 165.218 144.399 165.137C144.447 165.057 144.525 164.998 144.615 164.974C144.706 164.95 144.802 164.963 144.884 165.009L147.144 166.339C147.285 166.424 147.402 166.543 147.485 166.686C147.568 166.828 147.614 166.989 147.618 167.154C147.623 167.318 147.585 167.481 147.51 167.628C147.434 167.774 147.323 167.899 147.187 167.991L144.905 169.507C144.846 169.548 144.777 169.57 144.705 169.572Z" fill="white"/>
<path d="M22.6068 66.7317C22.3922 66.5172 23.7725 64.7793 25.6962 62.8484C27.62 60.9175 29.3579 59.5444 29.5796 59.7589C29.8013 59.9735 28.4139 61.7184 26.4901 63.6422C24.5663 65.566 22.8285 66.9534 22.6068 66.7317Z" fill="url(#paint1_linear_1_8651)"/>
<path d="M30.7654 67.4113C30.5509 67.633 28.6986 66.1312 26.6318 64.0644C24.565 61.9976 23.056 60.1524 23.2848 59.9307C23.5137 59.709 25.3588 61.2109 27.4184 63.2777C29.4781 65.3445 30.9871 67.1968 30.7654 67.4113Z" fill="url(#paint2_linear_1_8651)"/>
<path d="M21.0406 125.754C20.8189 125.532 22.2063 123.795 24.1301 121.871C26.0538 119.947 27.7917 118.567 28.0134 118.781C28.2351 118.996 26.8477 120.734 24.9167 122.665C22.9858 124.596 21.2551 125.969 21.0406 125.754Z" fill="url(#paint3_linear_1_8651)"/>
<path d="M29.2155 126.434C28.9938 126.648 27.1487 125.154 25.0819 123.087C23.0151 121.02 21.5061 119.168 21.7349 118.953C21.9638 118.739 23.8018 120.233 25.8686 122.3C27.9354 124.367 29.4158 126.212 29.2155 126.434Z" fill="url(#paint4_linear_1_8651)"/>
<defs>
<linearGradient id="paint0_linear_1_8651" x1="110.964" y1="171.697" x2="127.569" y2="146.494" gradientUnits="userSpaceOnUse">
<stop stop-color="#B33DEB"/>
<stop offset="1" stop-color="#DE8FFF"/>
</linearGradient>
<linearGradient id="paint1_linear_1_8651" x1="23.0549" y1="65.0005" x2="29.1328" y2="61.4914" gradientUnits="userSpaceOnUse">
<stop stop-color="#B33DEB"/>
<stop offset="1" stop-color="#DE8FFF"/>
</linearGradient>
<linearGradient id="paint2_linear_1_8651" x1="23.766" y1="65.552" x2="30.2824" y2="61.7892" gradientUnits="userSpaceOnUse">
<stop stop-color="#B33DEB"/>
<stop offset="1" stop-color="#DE8FFF"/>
</linearGradient>
<linearGradient id="paint3_linear_1_8651" x1="21.4875" y1="124.022" x2="27.5654" y2="120.512" gradientUnits="userSpaceOnUse">
<stop stop-color="#B33DEB"/>
<stop offset="1" stop-color="#DE8FFF"/>
</linearGradient>
<linearGradient id="paint4_linear_1_8651" x1="22.2158" y1="124.574" x2="28.7298" y2="120.813" gradientUnits="userSpaceOnUse">
<stop stop-color="#B33DEB"/>
<stop offset="1" stop-color="#DE8FFF"/>
</linearGradient>
</defs>
</svg>