<svg width="265" height="223" viewBox="0 0 265 223" fill="none" xmlns="http://www.w3.org/2000/svg">
<path d="M160.901 211.534L110.777 195.443C110.643 195.401 110.503 195.384 110.363 195.393L71.812 198.248C65.037 181.828 56.5486 161.303 52.6863 151.93C52.0427 150.393 51.0058 149.053 49.6799 148.044C48.354 147.035 46.7858 146.393 45.1331 146.183L3.38351 140.728C2.88711 140.668 2.38359 140.739 1.92331 140.935C1.46303 141.13 1.06213 141.443 0.760721 141.842C0.459309 142.241 0.267946 142.712 0.205782 143.208C0.143618 143.704 0.212831 144.208 0.406494 144.669L23.9156 199.491C24.2268 200.218 24.6858 200.873 25.2634 201.414C25.841 201.954 26.5246 202.369 27.271 202.632L75.0246 221.686C76.116 222.121 77.2985 222.278 78.4657 222.143L81.5212 221.807C92.1014 220.701 144.345 215.382 160.687 213.669C160.946 213.655 161.192 213.55 161.379 213.371C161.567 213.192 161.685 212.952 161.71 212.694C161.736 212.435 161.669 212.177 161.52 211.964C161.372 211.751 161.152 211.599 160.901 211.534Z" fill="#E0E0E0"/>
<path d="M160.902 211.535C161.069 211.589 161.221 211.681 161.345 211.806C161.469 211.93 161.562 212.082 161.616 212.249C161.68 212.46 161.682 212.685 161.62 212.897C161.557 213.109 161.434 213.298 161.266 213.441C161.041 213.615 160.765 213.71 160.48 213.712L159.538 213.812L147.809 215.054L104.66 219.545L90.3815 221.03L82.7783 221.815L78.8732 222.236C77.5208 222.447 76.1365 222.287 74.8681 221.772L42.9277 209.05L34.3965 205.645L30.0487 203.917L27.857 203.046C27.4929 202.889 27.1431 202.761 26.7505 202.597C26.3769 202.431 26.0225 202.225 25.6939 201.983C25.0327 201.493 24.4788 200.874 24.0662 200.162C23.6664 199.448 23.4094 198.699 23.081 197.963L21.1748 193.53C19.8945 190.56 18.6071 187.559 17.3125 184.528C12.1224 172.391 6.73951 159.883 1.23524 147.047L0.478491 145.284C0.158578 144.697 -0.00607322 144.039 0.000171222 143.37C0.0412623 142.69 0.308853 142.042 0.760353 141.531C1.21185 141.02 1.82131 140.675 2.49172 140.551C2.65592 140.515 2.82726 140.551 2.9986 140.501L3.4912 140.536L4.43357 140.665L6.31116 140.907L10.0521 141.393L24.8158 143.328L39.2368 145.212L42.8064 145.676C43.9843 145.855 45.1623 145.933 46.3759 146.212C48.7209 146.816 50.757 148.272 52.0872 150.295C52.6822 151.303 53.1817 152.364 53.5793 153.465C54.0171 154.531 54.455 155.593 54.8929 156.649L57.4844 162.939L62.5389 175.19C65.8372 183.2 69.0141 190.896 72.0339 198.22L71.8769 198.12L109.443 195.343L110.485 195.265C110.673 195.263 110.86 195.297 111.035 195.365L111.528 195.529L113.412 196.157L117.21 197.378L124.371 199.727L137.007 203.803L154.676 209.514L159.317 211.035C160.366 211.378 160.902 211.563 160.902 211.563C160.902 211.563 160.359 211.406 159.303 211.078L154.648 209.607L136.971 203.939L124.328 199.898L117.117 197.585L113.319 196.371L111.37 195.75C111.064 195.625 110.742 195.541 110.414 195.5L109.372 195.579L71.8126 198.435H71.7055L71.6555 198.327C68.6285 191.01 65.4516 183.335 62.1391 175.311L57.0774 163.06C56.2208 160.985 55.3545 158.889 54.4788 156.771C54.0433 155.714 53.6007 154.629 53.1652 153.587C52.7735 152.509 52.2836 151.469 51.7017 150.481C50.4267 148.538 48.4751 147.139 46.226 146.555C45.1123 146.283 43.9129 146.198 42.7421 146.026L39.1725 145.562L24.7444 143.685L9.98067 141.757L6.23263 141.272L4.35503 141.022C3.75392 140.9 3.13898 140.862 2.52742 140.907C1.9398 141.019 1.40604 141.323 1.01045 141.772C0.614857 142.22 0.379964 142.788 0.342851 143.385C0.338421 143.997 0.493423 144.6 0.792614 145.134L1.57078 146.897L17.6409 184.385C18.9403 187.412 20.2253 190.413 21.4961 193.387C22.1386 194.872 22.7668 196.35 23.4022 197.821C23.7235 198.534 24.0019 199.32 24.3731 199.962C24.758 200.631 25.2784 201.212 25.9009 201.669C26.2097 201.897 26.5425 202.091 26.8932 202.247C27.2359 202.397 27.6072 202.532 27.9784 202.682L30.1701 203.56L34.5107 205.295L43.0776 208.701L75.0038 221.458C76.2235 221.958 77.5569 222.114 78.8589 221.908L82.7711 221.487L90.3743 220.716L104.653 219.288L147.816 214.912L159.552 213.734L160.495 213.648C160.767 213.648 161.032 213.56 161.252 213.398C161.414 213.263 161.533 213.084 161.596 212.883C161.658 212.681 161.66 212.466 161.601 212.263C161.533 212.011 161.369 211.796 161.144 211.663C160.987 211.571 160.902 211.542 160.902 211.535Z" fill="#263238"/>
<path d="M96.3935 201.611L115.191 209.478L138.614 207.037L118.917 198.905L96.3935 201.611Z" fill="#F5F5F5"/>
<path d="M82.2208 216.482L118.916 213.169L83.8771 199.276L72.6116 200.126L78.5656 214.49L82.2208 216.482Z" fill="#F5F5F5"/>
<path d="M157.267 211.513L157.017 211.556L156.267 211.648L153.412 211.941L142.803 212.976L107.821 216.239L80.3212 218.723H80.207L80.1641 218.616L74.0745 203.76L72.4039 199.605C72.2183 199.129 72.0755 198.765 71.9756 198.512C71.9233 198.386 71.878 198.258 71.8399 198.127C71.8399 198.127 71.9042 198.248 72.0184 198.491L72.4896 199.569L74.2387 203.688C75.7379 207.258 77.8796 212.362 80.4497 218.502L80.2927 218.402L107.785 215.853L142.803 212.698L153.39 211.798L156.246 211.57L156.995 211.52L157.267 211.513Z" fill="black"/>
<path d="M1.61945 142.713H1.93357L2.86166 142.82L6.43122 143.284L19.5244 145.069C25.05 145.84 31.6609 146.768 38.9356 147.846L44.5327 148.71L45.9605 148.952C46.1961 148.988 46.446 149.045 46.6744 149.102C46.7958 149.102 46.9243 149.152 47.0457 149.188C47.6478 149.43 48.1944 149.792 48.652 150.252C48.8374 150.449 48.985 150.679 49.0875 150.93L49.3659 151.644C50.858 155.371 52.4 159.233 53.9849 163.181C60.2959 178.994 66.0001 193.315 70.1407 203.695C72.1897 208.871 73.8459 213.069 75.0025 215.982C75.5593 217.41 75.9948 218.552 76.3018 219.337C76.4446 219.708 76.5517 219.994 76.6302 220.208C76.6707 220.305 76.7041 220.406 76.7302 220.508C76.6798 220.415 76.6345 220.32 76.5945 220.222L76.2304 219.359L74.8668 216.039C73.6889 213.126 72.0112 208.95 69.8695 203.788L53.6779 163.316C52.093 159.368 50.551 155.506 49.0589 151.78L48.7805 151.066C48.6945 150.855 48.5711 150.661 48.4164 150.495C48.0971 150.147 47.711 149.868 47.2813 149.674C47.1744 149.622 47.0648 149.577 46.9529 149.538L46.6102 149.452C46.3817 149.402 46.1533 149.352 45.8963 149.317L44.4685 149.067L38.8714 148.189L19.4815 145.333L6.40266 143.427L2.8331 142.898L1.91215 142.749L1.61945 142.713Z" fill="black"/>
<path d="M38.5233 175.532C40.3081 177.923 40.6651 180.672 39.3301 181.671C37.995 182.671 35.4535 181.55 33.6687 179.158C31.884 176.767 31.527 174.025 32.862 173.019C34.197 172.012 36.7386 173.147 38.5233 175.532Z" fill="white"/>
<path d="M264.39 134.761C261.998 121.196 246.999 113.022 242.044 108.51L249.491 118.469C253.302 134.187 254.745 150.386 253.774 166.53C253.674 168.293 253.867 170.67 255.123 170.92C255.577 170.958 256.028 170.817 256.38 170.528C260.777 167.708 263.633 161.247 264.269 154.593C264.904 147.939 265.475 141.036 264.39 134.761Z" fill="#14A7DC"/>
<path d="M253.411 119.568C252.697 118.205 252.99 113.857 249.128 118.398L248.878 116.698L225.012 98.3509L171.818 101.114C166.714 101.435 159.046 110.273 157.133 113.964C155.562 127.693 155.248 139.879 155.248 139.879C155.248 139.879 153.421 155.143 155.248 162.36C157.076 169.578 159.239 172.184 162.066 177.795C164.135 181.629 166.714 185.164 169.733 188.304L172.218 207.579L227.789 212.577L253.225 211.149C253.225 211.149 250.948 173.133 250.948 172.462C250.948 172.148 254.125 164.809 257.537 157.02C263.334 143.691 260.065 132.433 253.411 119.568Z" fill="#455A64"/>
<path d="M113.856 188.711C114.134 188.711 116.911 169.942 118.732 165.68C120.445 161.661 157.133 113.957 157.133 113.957L165.772 141.8L162.066 156.692L142.077 180.744L136.43 198.178L113.856 188.711Z" fill="#455A64"/>
<path d="M260.806 133.832C258.172 117.134 245.164 117.862 245.164 117.862L232.235 140.358V186.876L169.861 192.273L168.704 207.937C168.704 207.937 230.85 222.143 245.207 217.382C254.709 214.233 262.734 206.287 263.612 193.301C264.49 180.315 263.447 150.538 260.806 133.832Z" fill="#455A64"/>
<path d="M142.141 180.715C141.96 179.651 141.721 178.597 141.427 177.559C140.645 175.065 139.232 172.814 137.327 171.025C135.421 169.235 133.086 167.967 130.547 167.343C129.491 167.106 128.424 166.925 127.349 166.801C127.643 166.765 127.94 166.765 128.234 166.801C129.034 166.833 129.83 166.938 130.611 167.115C133.216 167.691 135.617 168.962 137.559 170.792C139.5 172.622 140.911 174.943 141.641 177.509C141.866 178.279 142.019 179.067 142.098 179.865C142.147 180.145 142.162 180.431 142.141 180.715Z" fill="black"/>
<path d="M171.996 191.63C172.085 191.606 172.176 191.59 172.267 191.58L173.06 191.466L176.115 191.059L187.374 189.631L224.497 185.119L232.75 184.134L232.586 184.313C233.064 171.662 233.299 160.511 233.214 152.522C233.214 148.531 233.128 145.326 233.078 143.12C233.078 142.035 233.028 141.185 233.014 140.593V139.936C233.014 139.786 233.014 139.715 233.014 139.707C233.021 139.783 233.021 139.86 233.014 139.936C233.014 140.1 233.014 140.314 233.057 140.586C233.057 141.185 233.128 142.013 233.178 143.12C233.271 145.319 233.371 148.524 233.428 152.522C233.556 160.511 233.385 171.676 232.921 184.32V184.477H232.764L224.511 185.469L187.352 189.874L176.087 191.166L173.017 191.495L172.217 191.573L171.996 191.63Z" fill="black"/>
<path d="M264.461 191.63C264.471 191.725 264.471 191.821 264.461 191.916C264.461 192.116 264.461 192.394 264.418 192.744C264.354 193.809 264.232 194.869 264.054 195.921C263.774 197.59 263.366 199.234 262.834 200.84C262.105 202.961 261.127 204.988 259.921 206.88C258.453 209.182 256.601 211.216 254.445 212.891C251.967 214.814 249.104 216.18 246.05 216.896C244.405 217.291 242.735 217.57 241.052 217.731C239.301 217.888 237.542 217.955 235.783 217.931C232.096 217.857 228.419 217.513 224.782 216.903L203.715 213.44L194.526 211.913L186.524 210.435C181.648 209.521 177.692 208.829 174.951 208.415L171.788 207.95L170.967 207.836C170.873 207.828 170.779 207.809 170.689 207.779H170.967L171.796 207.865C172.509 207.943 173.595 208.065 174.972 208.257C177.721 208.629 181.683 209.286 186.574 210.164L194.562 211.591L203.757 213.084L224.825 216.525C228.45 217.142 232.115 217.493 235.791 217.574C237.575 217.574 239.317 217.524 241.024 217.388C242.688 217.235 244.339 216.963 245.964 216.575C248.979 215.877 251.809 214.538 254.26 212.648C256.395 211.004 258.235 209.007 259.7 206.744C260.907 204.876 261.892 202.873 262.634 200.776C263.179 199.186 263.606 197.559 263.912 195.907C264.147 194.543 264.29 193.472 264.34 192.744L264.426 191.916C264.431 191.82 264.443 191.725 264.461 191.63Z" fill="black"/>
<path d="M170.31 192.78C170.281 192.684 170.262 192.586 170.253 192.487C170.218 192.266 170.168 191.973 170.118 191.616C170.003 190.816 169.839 189.703 169.639 188.289V188.339L164.913 183.106C163.992 181.793 163.16 180.419 162.422 178.994C161.597 177.372 160.867 175.704 160.237 173.997C158.844 170.139 157.886 166.138 157.381 162.067C156.883 157.661 156.78 153.22 157.075 148.796C157.296 144.726 157.717 141.071 158.117 138.016C158.517 134.96 158.895 132.497 159.166 130.791L159.488 128.835C159.523 128.628 159.552 128.463 159.58 128.328C159.586 128.269 159.6 128.211 159.623 128.156C159.63 128.213 159.63 128.271 159.623 128.328C159.623 128.471 159.623 128.635 159.566 128.842C159.502 129.327 159.423 129.984 159.316 130.812C159.088 132.518 158.752 134.989 158.381 138.051C158.01 141.114 157.674 144.755 157.453 148.824C157.18 153.225 157.29 157.642 157.781 162.024C158.279 166.07 159.217 170.048 160.58 173.89C161.196 175.579 161.912 177.231 162.722 178.837C163.444 180.254 164.257 181.623 165.156 182.935L169.818 188.232L170.203 191.566C170.239 191.93 170.268 192.223 170.296 192.444C170.321 192.554 170.326 192.668 170.31 192.78Z" fill="black"/>
<path d="M241.739 194.514C241.268 193.992 240.836 193.436 240.447 192.851C239.669 191.801 238.576 190.374 237.298 188.853C236.021 187.332 234.814 185.997 233.922 185.055C233.409 184.566 232.932 184.041 232.494 183.484C233.075 183.888 233.611 184.352 234.093 184.869C235.32 186.054 236.481 187.305 237.57 188.617C238.666 189.921 239.693 191.282 240.647 192.694C241.071 193.262 241.437 193.872 241.739 194.514Z" fill="black"/>
<path d="M129.118 191.002C128.59 187.954 125.813 185.577 125.813 185.577C125.813 185.577 124.485 181.864 122.5 180.886C120.516 179.908 118.931 181.864 117.203 181.336C115.475 180.808 111.77 180.672 110.578 181.336C109.386 182 107.929 185.705 107.929 185.705C106.727 185.753 105.552 186.071 104.488 186.633C103.587 187.099 102.807 187.769 102.211 188.589C101.693 188.388 101.127 188.348 100.586 188.475C100.046 188.603 99.5567 188.892 99.1839 189.303C98.4596 190.15 97.9176 191.136 97.5918 192.202L96.6495 194.729C96.468 195.114 96.3846 195.539 96.4067 195.964C96.4794 196.314 96.6687 196.629 96.9437 196.857C97.2186 197.085 97.5629 197.213 97.9202 197.22C98.2832 197.222 98.6424 197.147 98.9745 197.001C99.3066 196.855 99.6042 196.64 99.8478 196.371C100.334 195.891 100.762 195.357 101.126 194.779L101.361 196.435C101.361 196.435 101.754 199.055 103.874 199.212C105.338 199.326 106.923 197.627 106.923 197.627L110.628 197.228L111.156 200.933C111.4 201.647 111.867 202.264 112.487 202.693C113.108 203.122 113.85 203.341 114.604 203.317C115.932 203.317 117.646 201.068 117.646 201.068L121.094 202.389C121.094 202.389 125.063 205.173 126.919 204.245C127.438 203.983 127.853 203.551 128.094 203.022C128.335 202.492 128.389 201.897 128.247 201.333C129.04 200.434 129.666 199.402 130.096 198.284C130.596 196.699 129.675 194.051 129.118 191.002Z" fill="#FFBE9D"/>
<path d="M101.276 195.8C101.125 194.489 101.171 193.163 101.412 191.866C101.536 190.554 101.858 189.268 102.369 188.054C102.469 188.054 102.076 189.788 101.776 191.923C101.476 194.058 101.412 195.8 101.276 195.8Z" fill="#EB996E"/>
<path d="M107.066 192.316C107.291 193.217 107.397 194.143 107.38 195.072C107.456 195.742 107.388 196.422 107.18 197.064C106.973 197.563 106.68 197.778 106.659 197.72C106.638 197.663 106.809 197.442 106.93 197.007C107.053 196.384 107.079 195.746 107.009 195.115C106.9 194.184 106.919 193.242 107.066 192.316Z" fill="#EB996E"/>
<path d="M109.536 190.738C109.607 190.81 109.122 191.452 108.444 192.109C107.766 192.766 107.166 193.294 107.087 193.223C107.009 193.151 107.501 192.509 108.18 191.852C108.858 191.195 109.465 190.667 109.536 190.738Z" fill="#EB996E"/>
<path d="M110.029 183.613C110.109 184.281 110.137 184.954 110.114 185.627C110.114 186.876 110.164 188.589 110.264 190.481C110.364 192.373 110.514 194.086 110.621 195.329C110.722 195.995 110.765 196.668 110.75 197.342C110.552 196.695 110.423 196.03 110.364 195.357C110.186 194.122 110 192.409 109.893 190.503C109.786 188.596 109.8 186.876 109.85 185.627C109.84 184.951 109.899 184.276 110.029 183.613Z" fill="#EB996E"/>
<path d="M123.922 185.034C123.922 185.034 123.764 185.391 123.515 186.033C123.166 186.943 122.89 187.879 122.686 188.832C122.558 189.446 122.422 190.11 122.272 190.816C122.131 191.59 121.92 192.35 121.644 193.087C121.336 193.919 120.817 194.657 120.138 195.228C119.767 195.55 119.325 195.779 118.849 195.897C118.372 196.015 117.874 196.018 117.396 195.907C116.9 195.795 116.45 195.53 116.111 195.15C115.799 194.773 115.598 194.315 115.533 193.829C115.432 192.962 115.415 192.087 115.483 191.216C115.564 189.756 115.789 188.306 116.154 186.89C116.399 185.935 116.714 185 117.097 184.091C117.232 183.77 117.339 183.527 117.425 183.377C117.461 183.29 117.509 183.209 117.568 183.135C117.479 183.482 117.367 183.823 117.232 184.156C116.904 185.074 116.63 186.011 116.411 186.961C116.086 188.368 115.891 189.802 115.826 191.245C115.769 192.087 115.791 192.933 115.89 193.772C115.948 194.192 116.121 194.587 116.39 194.914C116.681 195.234 117.061 195.458 117.482 195.557C117.906 195.654 118.347 195.65 118.769 195.545C119.19 195.439 119.581 195.235 119.909 194.95C120.546 194.415 121.037 193.727 121.337 192.951C121.786 191.576 122.155 190.177 122.444 188.76C122.668 187.802 122.983 186.867 123.386 185.969C123.497 185.723 123.624 185.485 123.764 185.255C123.85 185.105 123.907 185.027 123.922 185.034Z" fill="#EB996E"/>
<path d="M125.32 186.64C125.22 187.432 124.87 188.171 124.322 188.751C123.774 189.331 123.056 189.722 122.271 189.867C122.897 189.454 123.491 188.996 124.049 188.496C124.518 187.91 124.943 187.29 125.32 186.64Z" fill="#EB996E"/>
<path d="M117.652 195.872C117.887 196.863 117.947 197.887 117.831 198.898C117.793 199.799 117.666 200.693 117.453 201.569V201.619C117.426 201.632 117.396 201.64 117.366 201.641C117.336 201.642 117.306 201.636 117.279 201.623C117.251 201.611 117.227 201.592 117.208 201.569C117.188 201.546 117.174 201.519 117.167 201.49C117.167 201.419 117.167 201.39 117.167 201.39C117.167 201.39 117.167 201.426 117.217 201.454C117.267 201.483 117.317 201.511 117.338 201.454L117.295 201.511C117.295 201.026 117.403 200.012 117.467 198.841C117.459 197.848 117.521 196.856 117.652 195.872Z" fill="#EB996E"/>
<path d="M126.057 192.916C125.782 193.37 125.456 193.792 125.086 194.172C124.268 195.124 123.55 196.158 122.944 197.256C122.342 198.354 122 199.575 121.945 200.826C121.945 201.79 122.109 202.375 122.045 202.39C121.794 201.907 121.669 201.369 121.681 200.826C121.659 199.516 121.982 198.224 122.616 197.078C123.245 195.951 124.023 194.913 124.929 193.994C125.257 193.588 125.637 193.226 126.057 192.916Z" fill="#EB996E"/>
<path d="M124.592 199.498C124.369 198.695 124.406 197.843 124.699 197.062C124.991 196.282 125.524 195.615 126.22 195.157C128.711 193.387 136.172 188.732 136.329 188.732C136.486 188.732 145.089 185.877 148.708 185.505C152.328 185.134 168.169 193.001 168.169 193.001C168.169 193.001 171.846 198.299 171.253 203.382C170.661 208.465 167.348 208.757 167.348 208.757L162.751 207.637L158.01 206.73C158.01 206.73 147.523 209.65 145.874 209.114C144.225 208.579 143.654 206.787 145.438 205.816C147.223 204.845 152.356 203.325 152.356 203.325L156.304 201.654L143.454 203.489C143.454 203.489 132.588 205.631 131.317 205.331C130.046 205.031 129.854 204.081 129.747 203.189C129.747 203.189 125.37 205.331 124.071 204.16C122.772 202.989 122.201 200.44 124.592 199.498Z" fill="#FFBE9D"/>
<path d="M152.328 196.371C152.009 196.423 151.686 196.439 151.364 196.421C150.75 196.421 149.858 196.421 148.758 196.493C147.476 196.551 146.202 196.73 144.953 197.028C144.217 197.216 143.5 197.471 142.812 197.792C142.098 198.12 141.384 198.506 140.67 198.934C139.942 199.351 139.183 199.711 138.4 200.012C137.667 200.282 136.901 200.448 136.122 200.505C134.839 200.505 133.561 200.649 132.31 200.933C131.493 201.193 130.773 201.69 130.24 202.361C130.059 202.622 129.899 202.896 129.761 203.182C129.761 203.182 129.761 203.089 129.804 202.932C129.878 202.702 129.984 202.483 130.118 202.282C130.633 201.541 131.37 200.983 132.224 200.69C133.488 200.36 134.787 200.185 136.094 200.169C137.648 199.988 139.141 199.458 140.463 198.62C141.177 198.213 141.891 197.799 142.647 197.463C143.352 197.142 144.086 196.888 144.839 196.707C146.11 196.41 147.41 196.254 148.716 196.243C149.829 196.243 150.722 196.243 151.343 196.286C151.673 196.283 152.003 196.312 152.328 196.371Z" fill="#EB996E"/>
<path d="M148.444 190.953C148.37 191.001 148.291 191.042 148.208 191.074C148.058 191.145 147.823 191.238 147.494 191.345C146.618 191.615 145.724 191.82 144.817 191.959C143.682 192.159 142.311 192.309 140.855 192.673C139.286 193.147 137.778 193.806 136.365 194.636C133.73 196.102 130.979 197.349 128.14 198.363C127.055 198.749 126.163 199.034 125.542 199.22C125.227 199.334 124.902 199.417 124.571 199.47C124.867 199.311 125.178 199.182 125.499 199.084L128.047 198.113C130.845 197.035 133.565 195.763 136.186 194.308C137.626 193.464 139.166 192.802 140.769 192.338C142.093 192.039 143.433 191.815 144.782 191.667C145.68 191.553 146.572 191.388 147.452 191.174C147.778 191.082 148.109 191.008 148.444 190.953Z" fill="#EB996E"/>
<path d="M158.874 194.015C158.78 193.737 158.711 193.45 158.667 193.159C158.497 192.491 158.167 191.874 157.708 191.361C157.248 190.848 156.671 190.453 156.026 190.21C155.742 190.134 155.465 190.033 155.198 189.91C155.198 189.868 155.555 189.825 156.112 189.96C156.835 190.155 157.487 190.554 157.989 191.11C158.488 191.669 158.813 192.361 158.924 193.102C158.999 193.404 158.982 193.723 158.874 194.015Z" fill="#EB996E"/>
<path d="M164.814 202.032C164.801 201.631 164.765 201.23 164.707 200.833C164.463 199.904 163.915 199.085 163.15 198.505C162.363 197.934 161.494 197.484 160.573 197.17C160.172 197.064 159.788 196.903 159.431 196.692C159.848 196.698 160.261 196.775 160.652 196.92C161.637 197.173 162.565 197.612 163.386 198.213C164.219 198.841 164.783 199.762 164.964 200.79C165.067 201.208 165.014 201.65 164.814 202.032Z" fill="#EB996E"/>
<path d="M129.789 203.175C129.608 203.336 129.397 203.462 129.168 203.546C128.572 203.827 127.956 204.065 127.326 204.26C126.893 204.411 126.449 204.533 125.998 204.624C125.455 204.695 124.903 204.639 124.385 204.46C124.093 204.353 123.826 204.185 123.602 203.969C123.378 203.753 123.202 203.492 123.086 203.203C122.79 202.617 122.671 201.957 122.743 201.304C122.817 200.811 123.072 200.364 123.457 200.048C123.785 199.759 124.153 199.519 124.549 199.334L124.456 199.548C124.166 198.663 124.232 197.7 124.642 196.864C124.982 196.237 125.44 195.681 125.991 195.229C126.345 194.934 126.722 194.669 127.119 194.436C127.256 194.338 127.408 194.263 127.569 194.215C127.605 194.265 126.991 194.622 126.141 195.393C125.64 195.851 125.224 196.395 124.913 196.999C124.561 197.77 124.52 198.647 124.799 199.448L124.842 199.584L124.706 199.655C124.035 200.005 123.228 200.519 123.15 201.361C123.09 201.942 123.194 202.528 123.45 203.053C123.544 203.3 123.69 203.524 123.877 203.711C124.064 203.898 124.288 204.044 124.535 204.138C124.991 204.306 125.479 204.369 125.963 204.324C126.401 204.245 126.835 204.143 127.262 204.017C128.055 203.796 128.69 203.574 129.118 203.417C129.333 203.313 129.558 203.232 129.789 203.175Z" fill="#EB996E"/>
<path d="M185.102 58.7573C183.553 43.2939 180.276 27.902 180.954 12.353L168.24 20.2917C168.875 26.4456 163.342 31.2145 160.137 36.4975C158.218 39.7249 157.093 43.3614 156.854 47.1081C156.614 50.8549 157.267 54.6051 158.759 58.0505C159.901 60.6206 161.522 63.0479 161.943 65.8321C162.657 70.5297 159.751 75.3057 160.822 79.939C162.05 85.272 168.575 88.199 173.837 86.6998C179.098 85.2006 182.868 80.2746 184.417 75.0559C185.966 69.8372 185.645 64.2044 185.102 58.7573Z" fill="#263238"/>
<path d="M168.926 17.6787C169.629 13.9057 171.323 10.3875 173.834 7.48472C176.345 4.58197 179.583 2.39905 183.215 1.15966C186.848 -0.0797331 190.744 -0.331018 194.506 0.431562C198.268 1.19414 201.759 2.94317 204.622 5.49937C206.942 7.57686 208.841 10.1684 211.525 11.7461C214.559 13.5237 214.952 12.9241 218.293 14.0021C221.634 15.0801 228.181 23.8041 228.288 27.3165L230.886 42.5942C230.972 46.1995 226.474 48.5197 222.991 47.5916C219.507 46.6635 217.051 43.5866 215.052 40.5739C213.053 37.5612 211.154 34.2986 208.077 32.4067C202.972 29.2727 196.419 30.8718 190.636 32.4067C184.853 33.9416 178.135 35.2624 173.324 31.6928C169.212 28.5873 167.984 22.7332 168.926 17.6787Z" fill="#263238"/>
<path d="M167.083 39.8102C167.083 29.7583 173.001 17.0721 183.039 17.529L214.665 23.5259C216.137 23.591 217.531 24.207 218.571 25.2516C219.61 26.2962 220.219 27.6933 220.277 29.1658L221.469 104.484H221.683C221.683 104.484 210.696 132.112 189.707 126.929C185.545 125.901 188.622 115.542 187.522 111.002L187.315 111.044C187.272 110.495 187.237 109.988 187.194 109.467C186.58 106.069 186.324 102.616 186.43 99.1649C185.994 93.1038 185.845 90.598 185.845 90.6765C185.845 90.755 172.923 89.3201 169.268 72.793C167.454 64.6116 167.047 50.983 167.083 39.8102Z" fill="#FFBE9D"/>
<path d="M172.666 52.9603C172.694 53.5183 172.938 54.0434 173.348 54.4235C173.757 54.8036 174.299 55.0087 174.858 54.995C175.132 55.0007 175.404 54.9515 175.658 54.8502C175.913 54.7489 176.144 54.5976 176.339 54.4052C176.534 54.2129 176.689 53.9834 176.794 53.7303C176.898 53.4772 176.951 53.2057 176.949 52.9318C176.922 52.3738 176.677 51.8487 176.267 51.4686C175.858 51.0885 175.316 50.8834 174.758 50.8971C174.484 50.8914 174.212 50.9406 173.957 51.0419C173.703 51.1432 173.471 51.2945 173.276 51.4869C173.081 51.6792 172.927 51.9087 172.822 52.1618C172.717 52.4149 172.664 52.6864 172.666 52.9603Z" fill="#263238"/>
<path d="M170.46 46.7137C170.738 46.9779 172.288 45.6785 174.593 45.55C176.899 45.4215 178.656 46.4638 178.877 46.1711C178.998 46.0355 178.691 45.55 177.927 45.0574C176.888 44.425 175.678 44.1306 174.465 44.215C173.279 44.2998 172.149 44.757 171.238 45.5215C170.524 46.0783 170.317 46.5995 170.46 46.7137Z" fill="#263238"/>
<path d="M193.441 51.7967C193.469 52.3547 193.714 52.8798 194.123 53.2599C194.533 53.64 195.075 53.8451 195.633 53.8313C195.907 53.8371 196.179 53.7878 196.434 53.6865C196.688 53.5852 196.92 53.4339 197.115 53.2416C197.31 53.0492 197.464 52.8197 197.569 52.5666C197.674 52.3136 197.727 52.042 197.725 51.7681C197.697 51.2063 197.449 50.678 197.035 50.2973C196.621 49.9165 196.074 49.714 195.512 49.7335C195.24 49.7306 194.97 49.782 194.718 49.8846C194.466 49.9872 194.237 50.1389 194.044 50.331C193.851 50.523 193.699 50.7516 193.595 51.0032C193.492 51.2549 193.44 51.5246 193.441 51.7967Z" fill="#263238"/>
<path d="M193.128 45.7851C193.406 46.0421 194.956 44.75 197.262 44.6143C199.567 44.4787 201.324 45.5353 201.545 45.2354C201.659 45.0998 201.366 44.6143 200.595 44.1217C199.555 43.4923 198.346 43.1982 197.133 43.2793C195.936 43.3514 194.792 43.7985 193.863 44.5572C193.199 45.1426 192.985 45.6638 193.128 45.7851Z" fill="#263238"/>
<path d="M185.795 63.369C185.795 63.2334 184.367 63.0763 182.011 62.9192C181.419 62.9192 180.855 62.805 180.734 62.4124C180.647 61.8069 180.747 61.1895 181.019 60.6419C181.49 59.214 181.976 57.6649 182.49 56.0657C184.524 49.5405 185.952 44.1933 185.688 44.1148C185.424 44.0363 183.546 49.255 181.533 55.773L180.141 60.3849C179.811 61.114 179.753 61.9368 179.977 62.7051C180.074 62.9088 180.216 63.0876 180.393 63.2275C180.57 63.3674 180.777 63.4646 180.998 63.5118C181.329 63.5809 181.667 63.6073 182.004 63.5903C184.346 63.576 185.795 63.4975 185.795 63.369Z" fill="#263238"/>
<path d="M185.846 90.719C193.711 90.3626 201.322 87.832 207.835 83.4086C207.835 83.4086 202.894 95.3666 186.103 94.8312L185.846 90.719Z" fill="#EB996E"/>
<path d="M187.101 68.8589C187.505 68.2802 188.05 67.8145 188.685 67.5059C189.32 67.1973 190.023 67.056 190.728 67.0955C191.238 67.1082 191.741 67.2248 192.205 67.4384C192.669 67.652 193.085 67.958 193.426 68.3377C193.758 68.7027 193.969 69.1607 194.032 69.6498C194.094 70.1389 194.005 70.6353 193.776 71.072C193.432 71.5078 192.965 71.8309 192.436 72.0001C191.907 72.1692 191.34 72.1767 190.806 72.0215C189.694 71.7023 188.658 71.1634 187.758 70.4366C187.481 70.2703 187.238 70.0522 187.044 69.7941C186.952 69.6723 186.898 69.5259 186.889 69.3734C186.88 69.2208 186.916 69.0691 186.994 68.9374" fill="#EB996E"/>
<path d="M192.657 64.5544C192.279 64.5544 192.421 67.053 190.394 68.9521C188.366 70.8511 185.682 70.744 185.682 71.0938C185.682 71.2509 186.303 71.5435 187.431 71.5078C188.897 71.4415 190.293 70.8601 191.372 69.8659C192.407 68.9102 193.029 67.5888 193.107 66.1821C193.157 65.1326 192.835 64.5258 192.657 64.5544Z" fill="#263238"/>
<path d="M192.02 37.0544C192.285 37.6684 194.569 37.2329 197.289 37.3971C200.009 37.5613 202.244 38.161 202.565 37.5756C202.708 37.2971 202.294 36.7331 201.38 36.1477C200.158 35.4749 198.799 35.0893 197.407 35.02C196.014 34.9507 194.623 35.1997 193.341 35.7479C192.377 36.2405 191.942 36.7617 192.02 37.0544Z" fill="#263238"/>
<path d="M170.904 39.9954C171.339 40.4951 172.896 39.8598 174.802 39.717C176.708 39.5742 178.371 39.8598 178.686 39.2886C178.836 39.0102 178.55 38.5033 177.808 38.0536C176.825 37.5141 175.703 37.2802 174.586 37.382C173.47 37.4837 172.409 37.9164 171.539 38.6247C170.897 39.203 170.711 39.7527 170.904 39.9954Z" fill="#263238"/>
<path d="M183.325 13.2313L184.625 11.3322C194.333 11.8353 203.928 13.6558 213.146 16.7437C216.829 17.9788 220.57 19.4994 223.212 22.3479C226.853 26.2602 227.745 31.9143 228.459 37.2116C231.186 57.3653 233.699 78.1473 228.53 97.8227C226.846 95.4525 223.776 94.5316 220.892 94.1532C218.007 93.7748 215.002 93.7891 212.325 92.6255C210.871 91.9597 209.572 90.9971 208.512 89.7996C207.452 88.602 206.655 87.196 206.171 85.6719C205.217 82.5961 205.376 79.2828 206.62 76.3126C207.97 73.0071 210.533 69.7374 209.64 66.3178C208.705 62.6982 204.372 60.8635 203.158 57.3296C201.066 51.2185 209.44 45.0932 207.292 39.0035C206.492 36.7547 204.393 35.2126 202.194 34.2845C199.995 33.3564 197.625 32.9067 195.405 32.0428C191.713 30.5135 188.577 27.8918 186.418 24.5293C184.259 21.1669 183.18 17.2246 183.325 13.2313Z" fill="#263238"/>
<path d="M232.714 23.1897C222.333 8.64016 215.301 6.87679 205.535 6.33422L219.099 36.7469C221.134 41.6443 223.932 47.5841 224.368 52.8599C224.882 59.1209 222.712 64.361 219.806 69.9224C216.322 76.6046 212.496 82.9727 206.506 87.5417C200.516 92.1108 187.18 97.8578 180.255 94.895L189.914 100.299L212.988 100.385L239.867 100.492C239.867 100.492 243.008 97.7364 245.771 90.6258C252.703 72.8137 244.293 39.4169 232.714 23.1897Z" fill="#14A7DC"/>
<path d="M251.855 117.955C251.855 117.955 246.072 106.09 238.526 99.5647C230.98 93.0396 226.347 93.1038 215.581 94.0176C204.815 94.9314 189.752 96.6305 186.182 95.7239L185.847 90.7265C184.076 90.548 176.816 87.0141 175.402 84.8795C172.703 87.6424 171.526 90.5908 172.139 93.7249L170.376 94.3889C167.775 95.3406 165.615 97.2167 164.309 99.6593C163.002 102.102 162.641 104.94 163.294 107.632C163.965 110.202 165.586 111.78 168.841 112.344C181.763 114.578 216.309 105.24 226.711 105.205C237.113 105.169 251.855 117.955 251.855 117.955Z" fill="#14A7DC"/>
<path d="M167.669 112.208C167.972 112.199 168.275 112.216 168.576 112.258C169.161 112.315 170.003 112.408 171.138 112.486C174.288 112.732 177.449 112.784 180.605 112.643C185.28 112.403 189.927 111.772 194.498 110.758C197.082 110.195 199.773 109.509 202.536 108.71L211.06 106.075C216.907 104.298 222.769 103.084 228.13 103.612C232.854 104.044 237.425 105.506 241.523 107.896C244.274 109.508 246.761 111.533 248.898 113.9C249.478 114.539 250.022 115.211 250.526 115.913C250.712 116.138 250.882 116.376 251.032 116.627C250.807 116.427 250.606 116.202 250.433 115.956C250.069 115.492 249.49 114.842 248.726 114.028C243.279 108.322 235.939 104.794 228.08 104.105C222.826 103.619 217.057 104.819 211.232 106.589C208.312 107.467 205.478 108.403 202.701 109.209C199.923 110.016 197.218 110.687 194.612 111.237C190.009 112.236 185.326 112.828 180.619 113.007C177.448 113.113 174.272 112.996 171.117 112.658C170.003 112.543 169.14 112.415 168.561 112.322C168.261 112.31 167.962 112.271 167.669 112.208Z" fill="#263238"/>
<path d="M252.475 114.057C239.439 97.1085 214.444 90.6333 194.812 99.1146L174.108 103.505C168.647 104.447 159.887 106.225 159.473 111.287C159.095 116.647 160.262 122.004 162.836 126.722C167.648 135.103 165.035 146.333 169.846 154.714C172.117 158.676 174.437 162.696 177.749 165.844C181.062 168.992 185.56 171.198 190.1 170.706C195.155 170.163 199.295 166.472 202.508 162.531C209.426 154.043 213.745 143.734 220.22 134.91C226.695 126.086 234.334 119.59 247.941 118.754C250.411 118.597 257.458 121.888 257.458 121.888C257.658 120.889 253.096 114.849 252.475 114.057Z" fill="#14A7DC"/>
<g opacity="0.3">
<path d="M224.61 103.976C215.608 103.976 206.763 108.302 198.039 110.23C162.943 117.955 162.943 104.719 162.943 104.719C161.843 110.937 167.683 113.792 173.83 115.22C185.567 117.933 198.103 119.389 206.57 116.684C213.395 114.542 220.52 112.95 227.409 110.972C234.298 108.995 244.222 109.752 249.44 114.649C244.771 106.975 233.613 103.955 224.61 103.976Z" fill="black"/>
</g>
<g opacity="0.3">
<path d="M179 103.027C179.419 103.946 180.031 104.764 180.795 105.426C181.559 106.087 182.456 106.577 183.426 106.861C185.37 107.421 187.405 107.595 189.416 107.375C196.755 106.875 203.808 104.426 210.754 101.999C205.2 101.806 199.824 103.741 194.377 104.854C188.93 105.968 182.791 106.039 178.364 102.713" fill="black"/>
</g>
<path d="M254.239 119.49C254.239 119.49 254.175 119.44 254.075 119.333L253.639 118.833C253.261 118.384 252.683 117.755 251.919 116.956C249.768 114.694 247.169 112.907 244.287 111.708C242.276 110.95 240.164 110.493 238.019 110.352C235.56 110.153 233.086 110.232 230.644 110.588C225.461 111.302 219.986 113.122 214.174 114.778C208.363 116.435 202.816 118.162 197.54 118.441C192.889 118.641 188.23 118.308 183.655 117.448C179.757 116.734 176.651 115.906 174.502 115.371L172.032 114.743L171.397 114.571L171.175 114.5C171.251 114.489 171.328 114.489 171.404 114.5L172.053 114.635L174.538 115.199C176.68 115.692 179.807 116.47 183.705 117.156C188.26 117.978 192.894 118.285 197.519 118.069C202.737 117.777 208.292 116.128 214.074 114.393C219.857 112.658 225.368 110.909 230.594 110.216C233.063 109.868 235.564 109.801 238.048 110.016C240.711 110.17 243.318 110.851 245.717 112.02C248.115 113.189 250.257 114.823 252.019 116.827C252.776 117.648 253.34 118.291 253.696 118.755L254.103 119.276L254.239 119.49Z" fill="black"/>
<path d="M241.131 102.027C241.077 101.992 241.027 101.951 240.981 101.906L240.567 101.527C240.217 101.185 239.667 100.706 238.953 100.099C236.897 98.4378 234.643 97.0374 232.243 95.9302C228.68 94.2978 224.892 93.2101 221.006 92.7034C216.242 92.112 211.423 92.124 206.663 92.7391C201.898 93.3689 197.17 94.2506 192.499 95.3805C190.435 95.8654 188.31 96.0339 186.195 95.8803C184.336 95.7412 182.55 95.0942 181.034 94.0098C179.816 93.0855 178.776 91.9488 177.964 90.6544C177.351 89.6885 176.818 88.6737 176.372 87.6203C176.008 86.7565 175.765 86.064 175.608 85.5928L175.444 85.0574C175.42 84.998 175.406 84.9354 175.401 84.8717C175.401 84.8717 175.437 84.9288 175.479 85.0431C175.522 85.1573 175.601 85.3572 175.679 85.5714C175.858 86.0283 176.122 86.7065 176.507 87.5632C176.973 88.5968 177.52 89.5922 178.142 90.5402C178.956 91.7987 179.988 92.9013 181.191 93.7956C182.678 94.8347 184.421 95.4492 186.231 95.5733C188.311 95.7083 190.4 95.5303 192.428 95.045C197.105 93.8916 201.843 93.0002 206.62 92.375C211.412 91.7566 216.264 91.7566 221.055 92.375C224.97 92.9059 228.781 94.0301 232.357 95.7089C234.765 96.8375 237.014 98.2777 239.046 99.9924C239.597 100.46 240.124 100.956 240.624 101.477L241.009 101.877C241.095 101.977 241.138 102.02 241.131 102.027Z" fill="black"/>
<path d="M236.919 101.678H236.74L236.212 101.592L234.177 101.257C231.684 100.873 229.172 100.618 226.653 100.493C222.913 100.309 219.165 100.428 215.444 100.85C210.893 101.461 206.382 102.345 201.937 103.498C197.197 104.641 192.585 105.64 188.308 105.576C186.29 105.589 184.278 105.349 182.319 104.862C180.61 104.379 179.03 103.523 177.693 102.356C175.773 100.679 174.214 98.6287 173.109 96.3308C172.689 95.4989 172.357 94.6256 172.117 93.725C172.151 93.7756 172.177 93.8309 172.195 93.8892L172.388 94.3889C172.567 94.8316 172.838 95.467 173.238 96.2594C174.379 98.5088 175.951 100.512 177.864 102.156C179.182 103.279 180.729 104.1 182.397 104.562C184.332 105.033 186.318 105.261 188.308 105.24C192.535 105.24 197.111 104.291 201.873 103.141C206.335 101.979 210.865 101.097 215.437 100.5C219.176 100.097 222.941 100.004 226.696 100.222C229.223 100.368 231.741 100.662 234.234 101.1C235.12 101.264 235.798 101.4 236.262 101.507L236.783 101.628C236.869 101.649 236.919 101.671 236.919 101.678Z" fill="black"/>
<path d="M237.576 69.6374C237.512 70.0427 237.422 70.4434 237.305 70.8367C237.193 71.3059 237.055 71.7684 236.891 72.2217C236.705 72.7572 236.527 73.3711 236.241 74.0208C235.955 74.6705 235.677 75.3987 235.299 76.1625C234.92 76.9264 234.499 77.6903 234.035 78.5113C231.95 82.0204 229.238 85.1156 226.032 87.6422C225.282 88.2134 224.604 88.7631 223.89 89.2057C223.176 89.6483 222.534 90.0695 221.913 90.4194C221.292 90.7692 220.721 91.0547 220.221 91.3046C219.793 91.5287 219.352 91.7265 218.9 91.8971C218.528 92.0684 218.144 92.2116 217.751 92.3255C218.099 92.1106 218.464 91.9244 218.843 91.7686C219.2 91.6045 219.635 91.3974 220.128 91.119C220.621 90.8406 221.192 90.5764 221.784 90.1909C222.377 89.8054 223.048 89.4341 223.719 88.9487C224.39 88.4632 225.097 87.9421 225.861 87.3781C229.005 84.8409 231.686 81.7782 233.785 78.3257C234.249 77.519 234.706 76.7622 235.063 76.0197C235.42 75.2773 235.777 74.5919 236.041 73.9351C236.305 73.2783 236.534 72.6929 236.755 72.1717C236.976 71.6506 237.105 71.1866 237.219 70.8153C237.304 70.4132 237.424 70.0191 237.576 69.6374Z" fill="black"/>
<path d="M236.499 112.194C236.305 112.194 236.112 112.177 235.921 112.144L235.207 112.051C234.935 112.016 234.614 112.051 234.264 112.001C232.245 111.953 230.234 112.265 228.325 112.922C227.008 113.374 225.727 113.923 224.491 114.564C223.076 115.31 221.701 116.13 220.372 117.02C217.559 118.898 214.618 121.197 211.462 123.517L195.356 135.475L190.437 139.044L189.088 139.972C188.938 140.094 188.775 140.199 188.603 140.287C188.739 140.153 188.884 140.028 189.038 139.915L190.344 138.902L195.192 135.225L211.255 123.217C214.41 120.904 217.352 118.605 220.2 116.735C221.543 115.844 222.932 115.027 224.362 114.286C225.62 113.652 226.923 113.113 228.26 112.672C230.201 112.03 232.244 111.754 234.286 111.859C234.643 111.859 234.964 111.894 235.235 111.937L235.949 112.066C236.136 112.092 236.32 112.135 236.499 112.194Z" fill="black"/>
<path d="M259.536 134.082C259.398 133.758 259.293 133.421 259.222 133.076C259.051 132.426 258.808 131.476 258.466 130.32C258.08 128.964 257.591 127.639 257.002 126.358C256.286 124.799 255.308 123.374 254.111 122.146C252.919 120.913 251.429 120.01 249.784 119.526C248.431 119.163 247.025 119.04 245.629 119.161C244.338 119.306 243.055 119.526 241.789 119.818C241.865 119.767 241.95 119.729 242.038 119.704C242.21 119.64 242.46 119.554 242.752 119.461C243.684 119.185 244.64 118.998 245.608 118.904C247.042 118.737 248.494 118.836 249.891 119.197C251.601 119.681 253.152 120.607 254.389 121.881C255.618 123.14 256.614 124.608 257.33 126.215C257.916 127.518 258.393 128.867 258.758 130.248C259.065 131.419 259.272 132.39 259.401 133.047C259.476 133.388 259.521 133.734 259.536 134.082Z" fill="black"/>
</svg>