<svg width="316" height="259" viewBox="0 0 316 259" fill="none" xmlns="http://www.w3.org/2000/svg">
<path d="M90.813 6.15168H8.96798V141.627H90.813V6.15168Z" fill="#E0E0E0"/>
<path d="M88.0896 6.15168H6.24454V141.627H88.0896V6.15168Z" fill="#EBEBEB"/>
<path d="M84.604 8.89564H9.73242V138.876H84.604V8.89564Z" fill="white"/>
<path d="M70.0269 25.7856H23.985V121.985H70.0269V25.7856Z" fill="#EBEBEB"/>
<path d="M23.986 87.9255C23.8789 78.9372 31.9598 70.1632 40.8552 68.9057C45.0993 68.3127 49.6077 69.1558 53.5732 67.5268C60.6466 64.6259 62.9044 55.2232 70.0065 52.4295L70.3351 121.964H23.986V87.9255Z" fill="#E0E0E0"/>
<path d="M304.845 0V74.5501H197.771L193.913 0.521579L304.845 0Z" fill="#E0E0E0"/>
<path d="M193.921 0.521626V74.393H300.995V0.521626H193.921Z" fill="white"/>
<path d="M301.495 74.9003H193.407V0.0430119H301.495V74.9003ZM194.429 73.8858H300.481V1.00758H194.429V73.8858Z" fill="#E0E0E0"/>
<path d="M289.39 9.70309H205.509V65.2191H289.39V9.70309Z" fill="white"/>
<path d="M289.392 9.70263H288.977H287.784H283.183L265.892 9.76693L205.51 9.8884L205.753 9.64547C205.753 26.6075 205.753 45.3701 205.753 65.1544L205.489 64.89L289.37 64.94L289.163 65.1544C289.206 48.2566 289.242 34.4312 289.27 24.757C289.27 19.9413 289.313 16.1831 289.327 13.5895C289.327 12.3177 289.327 11.3388 289.327 10.6529C289.327 9.98842 289.327 9.63832 289.327 9.63832C289.327 9.63832 289.327 9.95985 289.327 10.61C289.327 11.2602 289.327 12.2462 289.327 13.468C289.327 16.0402 289.327 19.7913 289.377 24.5926C289.377 34.2669 289.442 48.1709 289.492 65.1186V65.3258H289.277L205.396 65.383H205.132V65.1186C205.132 45.3629 205.132 26.5718 205.132 9.60974V9.36682H205.367L265.913 9.48828L283.14 9.55259H287.698H288.863C289.043 9.58958 289.219 9.63973 289.392 9.70263Z" fill="#E0E0E0"/>
<path d="M193.914 0.314769C194.576 0.633007 195.196 1.03394 195.757 1.50797C196.85 2.30106 198.344 3.42281 199.958 4.70889C201.573 5.99498 202.981 7.21676 203.981 8.13131C204.556 8.5869 205.07 9.11527 205.51 9.7032C205.417 9.81752 202.838 7.68833 199.622 5.1233C196.407 2.55828 193.821 0.436232 193.914 0.314769Z" fill="#E0E0E0"/>
<path d="M300.989 0.521882C301.081 0.636201 298.559 2.78682 295.358 5.32327C292.157 7.85972 289.485 9.81742 289.392 9.70311C289.299 9.58879 291.822 7.43816 295.03 4.90172C298.238 2.36527 300.896 0.407564 300.989 0.521882Z" fill="#E0E0E0"/>
<path d="M300.901 74.4074L288.962 64.7261L300.901 74.4074Z" fill="white"/>
<path d="M288.964 64.7261C289.057 64.6189 291.822 66.691 295.101 69.3632C298.381 72.0354 300.996 74.2932 300.903 74.4075C300.81 74.5218 298.045 72.4426 294.773 69.7704C291.5 67.0982 288.878 64.8404 288.964 64.7261Z" fill="#E0E0E0"/>
<path d="M193.913 74.3934C193.828 74.2791 196.321 72.157 199.494 69.6492C202.666 67.1413 205.302 65.205 205.395 65.3193C205.488 65.4337 202.987 67.5557 199.822 70.0636C196.657 72.5714 194.006 74.5077 193.913 74.3934Z" fill="#E0E0E0"/>
<path d="M222.544 26.9937V45.5848H275.323V26.9937L222.544 26.9937Z" fill="#E0E0E0"/>
<path d="M142.45 247.671C142.45 244.435 144.929 242.091 148.265 242.091C149.069 242.062 149.87 242.209 150.61 242.523C151.351 242.836 152.014 243.309 152.552 243.906L151.259 245.113C150.895 244.706 150.448 244.381 149.947 244.162C149.447 243.942 148.905 243.833 148.358 243.842C147.843 243.819 147.328 243.902 146.846 244.084C146.363 244.265 145.922 244.543 145.549 244.9C145.177 245.257 144.88 245.685 144.678 246.16C144.475 246.634 144.371 247.145 144.371 247.661C144.371 248.177 144.475 248.687 144.678 249.162C144.88 249.636 145.177 250.065 145.549 250.421C145.922 250.778 146.363 251.056 146.846 251.238C147.328 251.42 147.843 251.502 148.358 251.48C148.907 251.489 149.451 251.378 149.952 251.154C150.453 250.931 150.899 250.601 151.259 250.186L152.567 251.43C152.028 252.026 151.365 252.498 150.624 252.811C149.884 253.125 149.083 253.273 148.28 253.244C144.907 253.259 142.45 250.915 142.45 247.671Z" fill="#EBEBEB"/>
<path d="M131.425 256.181H117.964V242.72H131.425V256.181ZM118.679 255.467H130.711V243.434H118.679V255.467Z" fill="#EBEBEB"/>
<path d="M115.397 258.982C114.997 258.682 118.212 253.852 123.164 248.729C128.115 243.606 132.817 240.206 133.167 240.591C133.517 240.977 129.401 244.964 124.536 250.023C119.67 255.081 115.812 259.311 115.397 258.982Z" fill="#E0E0E0"/>
<path d="M133.352 258.689C132.917 259.004 129.244 254.538 124.393 249.358C119.541 244.178 115.34 240.205 115.676 239.791C116.012 239.377 120.813 242.792 125.75 248.086C130.687 253.381 133.76 258.432 133.352 258.689Z" fill="#E0E0E0"/>
<path d="M41.3055 203.766L34.6965 203.294L33.1746 206.266L30.6382 206.088L37.533 193.277L39.948 193.448L44.9494 207.102L42.3773 206.924L41.3055 203.766ZM40.6339 201.779L38.5547 195.813L35.6968 201.422L40.6339 201.779Z" fill="#EBEBEB"/>
<path d="M19.7198 206.81L3.47223 205.659L4.62971 189.383L20.8701 190.541L19.7198 206.81ZM4.23674 204.995L19.0553 206.052L20.1056 191.227L5.28704 190.176L4.23674 204.995Z" fill="#EBEBEB"/>
<path d="M0.0218862 208.918C-0.34965 208.596 4.04448 203.059 10.5106 197.257C16.9768 191.456 22.9356 187.647 23.2214 188.047C23.5072 188.448 18.1271 192.892 11.7896 198.636C5.45202 204.381 0.414857 209.275 0.0218862 208.918Z" fill="#E0E0E0"/>
<path d="M21.9218 210.146C21.4645 210.432 17.4491 204.609 11.9689 197.871C6.48876 191.134 1.65165 185.982 2.00889 185.589C2.36614 185.196 7.85344 189.833 13.4408 196.7C19.0281 203.566 22.3433 209.896 21.9218 210.146Z" fill="#E0E0E0"/>
<path d="M315.421 133.088C316.042 135.275 314.706 137.039 311.405 137.968L305.06 139.762L301.488 127.001L307.468 125.307C310.526 124.443 312.534 125.307 313.106 127.294C313.289 127.863 313.306 128.473 313.157 129.052C313.008 129.631 312.698 130.156 312.262 130.566C312.996 130.57 313.707 130.821 314.28 131.278C314.853 131.736 315.255 132.374 315.421 133.088ZM304.346 128.187L305.346 131.709L308.697 130.759C310.34 130.295 311.105 129.444 310.776 128.28C310.448 127.115 309.347 126.772 307.704 127.237L304.346 128.187ZM312.97 133.524C312.605 132.252 311.477 131.959 309.69 132.467L305.868 133.553L306.904 137.232L310.733 136.146C312.52 135.639 313.327 134.803 312.97 133.524Z" fill="#EBEBEB"/>
<path d="M277.559 149.107L273.122 133.438L288.79 129.001L293.227 144.67L277.559 149.107ZM273.986 133.931L278.03 148.221L292.32 144.17L288.269 129.88L273.986 133.931Z" fill="#EBEBEB"/>
<path d="M275.422 153.351C274.958 153.165 277.208 146.47 281.317 138.811C285.425 131.152 289.741 125.55 290.141 125.836C290.541 126.122 286.997 132.116 282.996 139.69C278.995 147.263 275.908 153.551 275.422 153.351Z" fill="#E0E0E0"/>
<path d="M296.436 147.057C296.1 147.479 290.349 143.37 282.904 138.898C275.459 134.425 269.157 131.217 269.371 130.724C269.586 130.231 276.316 132.731 283.861 137.304C291.406 141.877 296.75 146.678 296.436 147.057Z" fill="#E0E0E0"/>
</svg>